<svg width="121" height="100" viewBox="0 0 121 100" fill="none" xmlns="http://www.w3.org/2000/svg">
<path d="M45.519 21.1931C18.0454 31.6992 10.5251 39.0829 5.44826 42.8301C7.20098 40.5334 9.01414 39.0829 10.2229 37.995C8.71194 33.7038 10.8877 25.182 13.4262 22.8249C12.7009 28.7479 13.547 31.7094 14.9976 31.7094C14.3932 29.1105 14.9976 22.281 17.6569 20.1051C16.2668 26.149 18.6843 29.9566 19.2887 29.6545C18.8656 18.292 23.8216 12.2482 26.1183 11.4625C23.3985 15.6931 24.1842 21.9788 24.7282 22.4018C26.4809 14.4844 29.6237 10.5559 32.5852 9.16579C28.1853 13.5174 28.1127 22.704 29.7446 23.1271C30.8929 16.6602 34.1566 11.4625 38.5082 7.35263C43.5246 2.6149 52.8926 -0.383444 57.6672 0.0396459C55.6123 1.18798 52.409 6.02308 53.4969 7.71536C60.3265 1.06712 67.9418 0.402398 75.6779 2.39677C70.1176 4.87475 66.2495 10.7373 66.6726 12.3087C73.3812 4.99563 80.9965 2.69896 95.6226 3.90761C103.782 4.58186 109.282 5.78145 113.815 5.05607C112.425 10.8582 101.727 14.6054 98.8259 15.0889C99.3698 15.935 100.095 15.8746 101.848 15.8746C100.397 18.9568 90.7271 19.6822 84.925 18.5339C85.3481 20.6491 94.1721 21.1931 96.0457 20.6491C90.848 24.759 78.8423 22.8249 71.7494 19.6822C72.2329 22.4018 80.1504 25.182 86.3151 25.5447C79.546 28.3854 70.7219 26.1267 64.9803 23.9129C66.6726 26.5722 71.7494 28.2645 77.068 28.9293C66.6726 33.7038 53.7991 30.1985 46.2443 24.9404C45.5191 27.237 55.7936 33.403 59.4804 33.7038C56.8815 35.3358 46.9696 31.7094 43.5246 29.6545C44.3103 31.5126 47.9073 33.4621 49.6289 34.1875C44.6125 34.1875 39.9587 30.5007 37.9642 29.9568C38.9917 32.2534 42.0741 34.9126 47.8762 36.6653C39.4147 39.8081 30.0468 33.6434 28.2336 32.6765C28.7776 36.6653 34.3983 37.995 35.728 38.7808C33.6731 39.8081 27.9314 36.6653 26.904 36.6653C27.0853 37.149 27.2062 37.451 27.2062 37.995C25.3326 37.451 24.7282 36.5447 23.8216 36.2424C23.8216 37.995 25.6348 38.7808 26.5413 39.8081C24.7282 40.3681 22.4919 36.8469 21.2227 37.2698C22.1898 39.8081 24.849 40.3522 25.7556 41.3797C25.0304 42.1049 20.1348 39.2643 19.4096 39.8081C20.3766 42.2258 23.6403 42.4072 24.3655 43.2533C22.6128 43.9181 17.1733 42.2258 15.4811 40.5334C14.2119 41.0169 12.8218 42.8301 11.1899 45.5498C10.1746 47.2421 9.81999 50.6065 9.79984 51.8958C9.17531 52.2585 7.43065 53.3705 5.44826 54.9178C3.46587 56.465 1.35858 59.229 0.552734 60.4177C0.633319 59.5514 0.867015 57.5408 1.15712 56.4287C1.44723 55.3167 2.08385 53.3061 2.36589 52.4398C3.1113 51.9563 4.05817 51.8958 5.44826 49.5992C5.87133 48.0882 6.01235 46.2348 5.87133 45.2476C11.9756 40.896 22.1898 32.1325 46.2443 23.1271C58.0903 18.6923 73.3812 14.847 93.1447 11.4625C90.4249 10.5559 60.8704 14.6053 45.519 21.1931Z" fill="#FF914D"/>
<path d="M12.8218 61.3848C9.09439 65.3738 4.56183 65.0716 2.36589 65.0111C6.89879 66.099 11.4907 64.1635 13.7283 61.9892C20.1348 55.764 21.5709 51.9589 25.0908 53.4674C29.7446 55.4618 21.6565 68.9475 29.0798 69.2418C42.7993 69.7858 45.0272 52.3402 52.1673 50.1432C59.9639 47.7443 59.1782 55.3206 66.4308 54.6761C72.9582 54.0961 77.8537 46.6378 78.4581 44.8247C75.9222 48.8136 72.1334 52.81 66.6726 53.4674C60.1452 54.2531 60.2661 45.4289 51.3212 48.2697C43.3228 50.8098 41.9532 65.6334 30.2885 66.5221C24.3655 66.9734 33.0083 54.1322 25.7556 51.4125C20.7689 49.5424 16.2668 57.6981 12.8218 61.3848Z" fill="#FF914D"/>
<g clip-path="url(#clip0_19_7)">
<path d="M20.3307 83.9754L25.7935 83.8616C25.8473 83.8608 25.901 83.8675 25.953 83.8815C26.0721 83.9157 26.1475 83.9938 26.1791 84.1157C26.191 84.1645 26.1968 84.2147 26.1962 84.265C26.1953 84.3294 26.1836 84.3931 26.1615 84.4536C26.1251 84.557 26.0605 84.6687 25.9678 84.7888C25.9613 84.797 25.9549 84.8052 25.9483 84.8133C25.4274 85.4732 24.9855 86.192 24.6318 86.9551C24.571 87.085 24.5125 87.2159 24.4563 87.3479C24.0606 88.2587 23.855 89.2409 23.852 90.2341C23.8514 90.4408 23.8591 90.6474 23.8753 90.8534C23.9306 91.5255 24.0846 91.9639 24.3374 92.1687C24.4307 92.2424 24.5404 92.2924 24.6572 92.3145C24.7253 92.3279 24.7946 92.3345 24.864 92.3342C25.188 92.3325 25.505 92.2401 25.7793 92.0674C25.9035 91.9912 26.0206 91.9039 26.1291 91.8066C26.4069 91.5574 26.651 91.273 26.8552 90.9604C26.9591 90.8028 27.0545 90.6398 27.1411 90.4721C27.2872 90.1886 27.4203 89.8986 27.54 89.603C27.6723 89.2766 27.7925 88.9454 27.9002 88.61C28.1683 87.7428 28.3802 86.8592 28.5346 85.9646C28.6098 85.5343 28.6737 85.1021 28.7262 84.6684C28.7384 84.5289 28.7829 84.3942 28.8561 84.275C28.872 84.2486 28.889 84.2228 28.9071 84.1979C29.0091 84.0559 29.1696 83.9819 29.3884 83.9758C29.3983 83.9755 29.4083 83.9754 29.4182 83.9754L34.881 83.8616C34.9316 83.8611 34.9821 83.866 35.0316 83.8765C35.1997 83.914 35.2837 84.0229 35.2837 84.2029C35.2828 84.2782 35.27 84.3529 35.2458 84.4241C35.2065 84.5449 35.1365 84.6746 35.0358 84.8133C34.5619 85.4647 34.1482 86.1581 33.7999 86.8847C33.4055 87.7206 33.1467 88.5437 33.0235 89.354C32.9679 89.7172 32.9398 90.084 32.9395 90.4513C32.9382 90.6535 32.9505 90.8555 32.9761 91.056C33.036 91.4985 33.1691 91.8159 33.3754 92.0083C33.541 92.1592 33.759 92.239 33.9826 92.2308C34.3595 92.2288 34.7273 92.1144 35.039 91.902C35.19 91.8015 35.3308 91.6864 35.4592 91.5583C35.7237 91.2944 35.9545 90.9987 36.1466 90.678C36.3155 90.3972 36.462 90.1035 36.5848 89.7996C37.0446 88.6675 37.3379 87.4746 37.4555 86.258C37.509 85.7299 37.5355 85.1993 37.5348 84.6684C37.5329 84.5679 37.551 84.468 37.5881 84.3746C37.6759 84.1642 37.8725 84.0337 38.1779 83.9828C38.1942 83.9801 38.2105 83.9776 38.2268 83.9754C38.2719 83.97 38.3172 83.9659 38.3626 83.9633C38.632 83.9455 39.2184 83.9254 40.1217 83.9029C40.3459 83.8974 40.5701 83.892 40.7943 83.8868C41.5238 83.87 42.0127 83.8616 42.2612 83.8616C42.2623 83.8616 42.2634 83.8616 42.2645 83.8616C42.3258 83.8608 42.387 83.8675 42.4466 83.8815C42.6419 83.9304 42.7396 84.0686 42.7396 84.2962C42.7354 85.0293 42.5981 85.7555 42.3343 86.4394C42.2066 86.7765 42.0556 87.1043 41.8824 87.4203C42.1988 87.4824 42.5204 87.5135 42.8428 87.5134C43.5872 87.5191 44.3264 87.3888 45.0241 87.1286C45.29 87.0278 45.548 86.9074 45.7962 86.7684C45.989 86.6581 46.1507 86.603 46.2816 86.603C46.3349 86.6023 46.3881 86.6081 46.44 86.6203C46.5776 86.6548 46.6594 86.7403 46.6855 86.8767C46.6918 86.9109 46.6949 86.9457 46.6946 86.9805C46.6932 87.1112 46.6548 87.2388 46.584 87.3485C46.5402 87.4197 46.4831 87.4899 46.4129 87.5591C46.3617 87.6092 46.3075 87.6561 46.2505 87.6996C45.719 88.0985 45.1159 88.3913 44.474 88.5619C43.814 88.7456 43.0706 88.8375 42.2438 88.8375C42.0444 88.8379 41.8451 88.8304 41.6464 88.8148C41.4326 88.7976 41.2325 88.7707 41.0459 88.7341L40.5813 89.3651C39.9554 90.1904 39.25 90.9522 38.4755 91.6395C38.205 91.8809 37.9275 92.1142 37.6433 92.3392C36.9531 92.8896 36.2222 93.3868 35.4569 93.8263C35.0237 94.074 34.5782 94.2993 34.122 94.5013C33.7111 94.6847 33.2896 94.8432 32.8598 94.9759C32.4258 95.108 32.0126 95.1987 31.6203 95.2482C31.3934 95.2774 31.1649 95.2923 30.9361 95.2929C30.5803 95.2899 30.2305 95.2009 29.9163 95.0335C29.7138 94.9295 29.5128 94.794 29.3133 94.6272C29.2665 94.588 29.2205 94.5478 29.1754 94.5066C28.7512 94.116 28.3914 93.6606 28.1093 93.1573C27.9903 92.9474 27.8825 92.7314 27.7866 92.51C27.1608 93.0293 26.4996 93.5044 25.8079 93.9316C25.4114 94.1756 25.0034 94.4003 24.5853 94.6049C23.8212 94.9778 23.1242 95.2189 22.4943 95.3283C22.247 95.3723 21.9965 95.3951 21.7454 95.3963C21.2736 95.4029 20.806 95.3069 20.3748 95.1148C19.9437 94.9228 19.5594 94.6392 19.2483 94.2838C19.1415 94.1669 19.0409 94.0444 18.9469 93.917C18.5368 93.3528 18.2419 92.713 18.079 92.0344C17.9278 91.4351 17.8523 90.7729 17.8523 90.0479C17.8523 89.4373 17.9689 88.6326 18.2021 87.6339C18.2275 87.5245 18.2538 87.4154 18.2808 87.3064C18.565 86.161 18.8985 85.2715 19.2813 84.6377C19.2834 84.6342 19.2855 84.6306 19.2877 84.6271C19.427 84.4025 19.5583 84.2421 19.6817 84.1457C19.6978 84.1331 19.7146 84.1211 19.7318 84.1099C19.788 84.0742 19.8489 84.0466 19.9128 84.0279C19.9722 84.0099 20.0379 83.9964 20.1101 83.9877C20.1834 83.9792 20.257 83.9751 20.3307 83.9754ZM95.1474 94.9412L94.8684 95.8617C94.6782 96.4957 94.3323 97.0717 93.8624 97.5372C93.8467 97.553 93.831 97.5686 93.8152 97.5842C93.3083 98.0825 92.7175 98.487 92.07 98.7791C91.7042 98.9436 91.3288 99.0858 90.9459 99.205C90.5747 99.3209 90.1986 99.4205 89.8187 99.5033C88.3454 99.8344 86.6828 99.9999 84.8309 99.9999C81.6021 99.9999 79.9878 99.3792 79.9878 98.1378C79.9878 97.717 80.32 97.3101 80.9843 96.917C81.252 96.7601 81.529 96.6197 81.8138 96.4965C82.1282 96.3591 82.472 96.2293 82.8452 96.1073C83.082 96.0302 83.3205 95.9587 83.5607 95.8929C85.5181 95.3585 87.5086 94.9541 89.5192 94.6825C89.7602 94.0066 89.9839 93.3618 90.1905 92.7479C89.4483 93.2932 88.6269 93.7209 87.755 94.0162C87.7407 94.0211 87.7263 94.0259 87.712 94.0308C86.904 94.3047 86.1629 94.4577 85.4888 94.4899C85.4004 94.4941 85.3119 94.4962 85.2234 94.4963C84.6541 94.4963 84.1534 94.4589 83.7214 94.3842C83.5946 94.3624 83.4687 94.336 83.3439 94.3049C82.8429 94.1809 82.3651 93.9765 81.9292 93.6996C81.596 93.4877 81.3096 93.2097 81.0877 92.8826C80.8659 92.5555 80.7133 92.1864 80.6394 91.7979C80.5674 91.459 80.5324 91.1133 80.5351 90.7668C80.5192 89.4581 80.901 88.1755 81.6298 87.0892C82.3464 86.0251 83.3302 85.1689 84.4821 84.6068C84.5208 84.5874 84.5597 84.5683 84.5987 84.5496C85.5076 84.1165 86.4819 83.8376 87.4819 83.7241C87.9352 83.6702 88.3914 83.6435 88.8479 83.6443C89.3205 83.6416 89.7925 83.6771 90.2594 83.7504C90.7628 83.8326 91.2166 83.9624 91.621 84.1398C91.9441 84.2796 92.2477 84.4608 92.5243 84.6788C93.0627 84.5128 93.6761 84.3635 94.3644 84.2307C94.4789 84.2086 94.5935 84.1873 94.7083 84.1667C94.9041 84.1316 95.1004 84.0992 95.2971 84.0695C95.7221 84.0056 96.088 83.9662 96.3949 83.9512C96.4833 83.9468 96.5717 83.9444 96.6602 83.9443C96.8537 83.9429 97.0468 83.9647 97.2352 84.0091C97.4582 84.0617 97.6694 84.1555 97.858 84.2858C97.9435 84.3443 98.0229 84.4112 98.0951 84.4856C98.1796 84.574 98.2429 84.6666 98.2852 84.7635C98.3271 84.8591 98.3487 84.9624 98.3485 85.0667C98.3476 85.16 98.3398 85.2532 98.3252 85.3453C98.2845 85.6172 98.1907 85.9675 98.0439 86.3962C97.8408 86.9893 97.4914 87.9789 96.9958 89.3651C96.5001 90.7514 96.0284 92.1445 95.5809 93.5446C96.9717 93.1652 98.4518 92.6031 100.021 91.8583C100.086 91.8275 100.151 91.7989 100.218 91.7725C100.387 91.7056 100.524 91.6721 100.631 91.6721C100.686 91.6715 100.742 91.6765 100.796 91.6869C100.968 91.7218 101.063 91.8176 101.082 91.9742C101.084 91.9941 101.085 92.0141 101.085 92.0342C101.084 92.1199 101.059 92.2038 101.014 92.2765C100.953 92.3796 100.853 92.4816 100.713 92.5825C99.5774 93.4377 97.722 94.2239 95.1474 94.9412ZM89.7878 91.4651C90.3247 91.0306 90.7945 90.3548 91.1974 89.4375C91.5544 88.6242 91.7532 87.9492 91.7938 87.4125C91.7988 87.3462 91.8013 87.2798 91.8014 87.2134C91.8014 86.7653 91.742 86.4276 91.6231 86.2002C91.5944 86.1441 91.5589 86.0918 91.5176 86.0443C91.3558 85.8618 91.0612 85.7572 90.6335 85.7305C90.5565 85.7258 90.4793 85.7236 90.4022 85.7237C89.9782 85.7237 89.5219 85.864 89.0334 86.1445C88.8753 86.2359 88.7221 86.3354 88.5743 86.4426C87.91 86.922 87.3696 87.534 86.953 88.2788C86.8115 88.5292 86.6885 88.7896 86.5848 89.0579C86.4752 89.3453 86.4008 89.6222 86.3614 89.8886C86.3397 90.0338 86.3286 90.1803 86.3282 90.3272C86.3282 90.6952 86.376 91.0033 86.4716 91.2513C86.53 91.4098 86.62 91.5547 86.7362 91.6772C86.8308 91.776 86.938 91.8619 87.0551 91.9325C87.2332 92.0398 87.4371 92.0965 87.645 92.0962C87.7233 92.0963 87.8016 92.0957 87.8799 92.0943C88.0458 92.0914 88.1851 92.0851 88.2978 92.0755C88.3315 92.0726 88.3652 92.0692 88.3987 92.0651C88.5511 92.0464 88.7442 91.9955 88.978 91.9121C89.0036 91.903 89.0291 91.8937 89.0546 91.8842C89.323 91.7842 89.5674 91.6445 89.7878 91.4651ZM88.6104 97.2376L89.0958 95.8617C88.6098 95.9379 88.1261 96.0283 87.6454 96.1329C85.535 96.5983 84.4798 97.2079 84.4798 97.9618C84.4785 98.0667 84.5008 98.1707 84.545 98.2659C84.5893 98.3611 84.6544 98.445 84.7355 98.5115C84.7768 98.5472 84.8208 98.5795 84.8671 98.6084C85.0114 98.6975 85.1697 98.7616 85.3353 98.7982C85.4898 98.8338 85.659 98.8516 85.8429 98.8516C86.1782 98.8548 86.5128 98.821 86.8407 98.7507C87.7365 98.5489 88.3265 98.0445 88.6104 97.2376ZM104.947 94.7134L99.629 94.8274C99.5984 94.8269 99.5682 94.8202 99.5402 94.8077C99.4941 94.7881 99.4453 94.7537 99.3937 94.7047C99.3877 94.6991 99.3819 94.6934 99.3761 94.6876C99.2832 94.5945 99.2367 94.4842 99.2367 94.3566C99.2383 94.3209 99.2434 94.2854 99.252 94.2507C99.2967 94.0483 99.4379 93.6318 99.6756 93.0013C99.9681 92.2255 100.292 91.391 100.646 90.4979C100.871 89.9279 101.076 89.35 101.26 88.7653C101.387 88.3625 101.506 87.9571 101.617 87.5496C101.808 86.8487 101.937 86.2266 102.003 85.6833C102.037 85.4187 102.054 85.1524 102.056 84.8858L102.046 84.4926C102.044 84.4081 102.069 84.3252 102.116 84.2549C102.162 84.1845 102.229 84.1301 102.308 84.0987C102.437 84.0347 102.615 83.9957 102.841 83.9815C102.91 83.9773 102.978 83.9753 103.047 83.9754L107.942 83.8616C108.121 83.8616 108.255 83.9151 108.345 84.022C108.42 84.1123 108.466 84.2235 108.475 84.3407C108.478 84.3654 108.479 84.3902 108.479 84.415C108.479 84.4598 108.476 84.5046 108.472 84.5491C108.458 84.7011 108.422 84.9064 108.365 85.165C109.053 84.8752 109.751 84.6131 110.46 84.3794C111.961 83.8893 113.252 83.6443 114.334 83.6443C114.978 83.6391 115.608 83.8304 116.141 84.1926C116.386 84.3531 116.591 84.5658 116.744 84.8154C116.896 85.065 116.992 85.3453 117.023 85.6362C117.042 85.7715 117.05 85.9078 117.05 86.0443C117.05 86.8107 116.789 87.7908 116.267 88.9848C116.209 89.1157 116.15 89.2459 116.09 89.3754C115.979 89.6133 115.87 89.8522 115.763 90.0922C115.341 91.0476 115.129 91.657 115.129 91.9204C115.129 92.5063 115.342 92.8246 115.767 92.8753C115.809 92.8802 115.851 92.8826 115.893 92.8825C115.989 92.8814 116.085 92.8737 116.179 92.8596C116.493 92.8157 116.923 92.7091 117.471 92.5399C117.498 92.5317 117.524 92.5234 117.551 92.5151C117.734 92.4579 117.917 92.3994 118.099 92.3397C118.449 92.2246 118.746 92.1209 118.989 92.0286C119.088 91.9909 119.187 91.9514 119.286 91.91C119.564 91.7922 119.789 91.7182 119.959 91.688C120.011 91.6781 120.064 91.6728 120.117 91.6721C120.167 91.6714 120.216 91.6771 120.265 91.6888C120.391 91.7216 120.467 91.8021 120.491 91.9303C120.497 91.9629 120.499 91.996 120.499 92.0291C120.499 92.1833 120.444 92.3324 120.344 92.4503C120.295 92.5121 120.233 92.5712 120.159 92.6274C120.147 92.6368 120.135 92.6459 120.122 92.6549C119.895 92.8168 119.571 92.9998 119.151 93.2041C119.105 93.2264 119.058 93.2485 119.012 93.2704C118.814 93.3638 118.614 93.4535 118.412 93.5397C118.232 93.6172 118.039 93.6969 117.836 93.7787C117.621 93.8647 117.406 93.9488 117.189 94.0308C116.486 94.2979 115.676 94.5278 114.76 94.7206C114.73 94.7269 114.7 94.7331 114.67 94.7393C114.069 94.8648 113.46 94.9517 112.848 94.9994C112.545 95.0224 112.242 95.034 111.938 95.0342C111.603 95.0357 111.269 95.0206 110.935 94.9888C110.276 94.9226 109.775 94.784 109.432 94.5732C109.261 94.4819 109.119 94.3454 109.02 94.1787C108.921 94.0119 108.87 93.8211 108.871 93.6272C108.875 93.4507 108.895 93.2749 108.932 93.1024C109.059 92.4671 109.385 91.5575 109.909 90.3738C110.049 90.0587 110.184 89.7412 110.314 89.4216C110.736 88.3752 110.947 87.6391 110.947 87.2134C110.955 87.0615 110.918 86.9106 110.841 86.7798C110.763 86.649 110.649 86.5441 110.512 86.4784C110.294 86.3645 109.995 86.303 109.614 86.2939C109.58 86.293 109.546 86.2926 109.512 86.2926C109.31 86.2932 109.109 86.3038 108.909 86.3244C108.704 86.3447 108.489 86.3749 108.264 86.4148C108.187 86.4285 108.111 86.4429 108.035 86.4583C107.959 86.7241 107.881 86.9891 107.8 87.2534C107.541 88.1062 107.177 89.2357 106.71 90.6418C106.685 90.7162 106.66 90.7907 106.636 90.8651C106.556 91.1033 106.477 91.3415 106.398 91.5797C105.908 93.0506 105.614 93.939 105.517 94.245C105.511 94.2632 105.506 94.2814 105.5 94.2996C105.478 94.3719 105.445 94.4402 105.402 94.502C105.317 94.6209 105.195 94.6897 105.038 94.7083C105.008 94.7118 104.978 94.7135 104.947 94.7134ZM8.19691 95.0285C8.0868 95.0311 7.95476 95.0328 7.80079 95.0335C7.72628 95.034 7.65176 95.0342 7.57725 95.0342C6.52819 95.0369 5.48021 94.9667 4.44086 94.824C3.99154 94.7614 3.54453 94.6831 3.10064 94.5893C1.69974 94.2928 0.871894 93.948 0.617119 93.5549C0.567987 93.4799 0.533404 93.3964 0.515181 93.3085C0.501505 93.2451 0.494173 93.177 0.493186 93.1041C0.493157 93.0991 0.493157 93.0942 0.493186 93.0893C0.49543 93.0339 0.509265 92.9797 0.533792 92.9301C0.60161 92.7801 0.754094 92.5871 0.991245 92.3511C1.04466 92.298 1.09895 92.2458 1.15409 92.1945C1.51165 91.8615 1.77848 91.6636 1.95458 91.6009C1.98919 91.5876 2.0258 91.5802 2.06286 91.5791C2.15657 91.5798 2.24935 91.5978 2.33653 91.6322C2.41464 91.6622 2.49381 91.7048 2.57403 91.76C2.65558 91.8162 2.73603 91.874 2.81534 91.9333C2.92335 92.014 3.03741 92.1027 3.15754 92.1996C3.29685 92.3119 3.43967 92.4197 3.5858 92.5229C3.67947 92.5892 3.77423 92.6539 3.87004 92.717C4.30989 93.0037 4.80548 93.1935 5.32404 93.274C5.591 93.3173 5.86107 93.3385 6.13151 93.3376C6.48258 93.3376 6.76654 93.2479 6.98339 93.0687C7.0757 92.9943 7.1527 92.9026 7.2101 92.7988C7.27679 92.6734 7.31077 92.5332 7.30887 92.3912C7.31259 92.1284 7.2145 91.8743 7.0352 91.6825C6.92705 91.5652 6.80625 91.4602 6.67503 91.3695C6.56258 91.2915 6.44477 91.2214 6.32248 91.16C6.17033 91.083 6.01676 91.0088 5.86186 90.9375C5.69478 90.8607 5.52648 90.7865 5.35703 90.7151C4.99936 90.5638 4.64636 90.4016 4.29852 90.2288C3.94407 90.053 3.61879 89.8616 3.32271 89.6547C3.12213 89.516 2.94109 89.3509 2.78447 89.1638C2.49482 88.8195 2.33773 88.3827 2.34161 87.9324C2.34161 87.2461 2.54985 86.6513 2.96635 86.1479C3.34985 85.688 3.82072 85.3091 4.35161 85.033C4.4142 84.9999 4.47744 84.9681 4.54131 84.9375C5.17465 84.634 5.89062 84.3788 6.6892 84.172C7.44471 83.9805 8.21175 83.838 8.98556 83.7453C9.54464 83.679 10.1071 83.6452 10.6701 83.6443C11.3822 83.6433 12.0942 83.6659 12.8049 83.7118C13.2577 83.7414 13.7098 83.7827 14.1605 83.8358C14.4098 83.8648 14.6582 83.9005 14.9056 83.9428C15.3534 84.0203 15.7198 84.1125 16.0049 84.2195C16.1372 84.2674 16.2647 84.3277 16.3858 84.3996C16.4278 84.4245 16.4615 84.4611 16.4829 84.5051C16.516 84.5679 16.5371 84.653 16.5461 84.7604C16.5496 84.8038 16.5513 84.8473 16.5512 84.8909C16.5512 85.1108 16.4875 85.4087 16.36 85.7845C16.3321 85.8664 16.3029 85.9479 16.2722 86.0288C16.0864 86.5219 15.8507 86.9771 15.565 87.3945C15.5078 87.4787 15.4466 87.5601 15.3816 87.6384C15.1685 87.893 14.9731 88.0204 14.7956 88.0204C14.7564 88.0206 14.7177 88.0125 14.6818 87.9967C14.646 87.9808 14.6139 87.9576 14.5877 87.9284C14.581 87.9214 14.5746 87.9141 14.5685 87.9066C14.055 87.2892 13.5531 86.7835 13.0629 86.3894C12.9334 86.285 12.8 86.1854 12.6632 86.0909C12.0755 85.6757 11.3737 85.4534 10.6546 85.4546C10.519 85.454 10.3834 85.4619 10.2488 85.4784C9.90547 85.5222 9.64661 85.6263 9.4722 85.7909C9.23462 86.015 9.11584 86.2478 9.11584 86.4892C9.11714 86.6183 9.15371 86.7446 9.22158 86.8545C9.28785 86.9662 9.38514 87.0755 9.51344 87.1824C9.77851 87.403 10.109 87.603 10.5049 87.7824C10.7127 87.8767 10.9193 87.9737 11.1246 88.0733C11.3495 88.1825 11.5732 88.2942 11.7956 88.4083C12.0762 88.5516 12.3534 88.7016 12.6268 88.8583C12.7815 88.9472 12.9348 89.0386 13.0866 89.1324C13.4825 89.3772 13.8129 89.6841 14.0778 90.053C14.2432 90.2867 14.358 90.5525 14.4147 90.8333C14.4564 91.0343 14.4767 91.2392 14.4754 91.4445C14.473 91.8254 14.381 92.2004 14.2068 92.539C14.1106 92.7295 13.9965 92.9103 13.8661 93.0791C14.3668 92.9789 14.8644 92.8634 15.358 92.7325C16.3556 92.4657 17.1833 92.1626 17.8409 91.8233C17.8516 91.8178 17.8623 91.8122 17.873 91.8066C17.9208 91.7804 17.97 91.7568 18.0204 91.7358C18.1238 91.6933 18.2158 91.6721 18.2964 91.6721C18.5039 91.6721 18.6291 91.7546 18.672 91.9195C18.6837 91.9672 18.6893 92.0161 18.6887 92.0651C18.6887 92.2859 18.5545 92.4876 18.286 92.6704C18.2099 92.7216 18.1317 92.7696 18.0517 92.8145C17.8691 92.918 17.6403 93.0314 17.3652 93.1547C17.2289 93.2158 17.0917 93.275 16.9539 93.3325C16.3343 93.5911 15.5977 93.8514 14.744 94.1134C13.1079 94.6059 11.4184 94.899 9.71224 94.9863C9.25571 95.0115 8.79858 95.024 8.34136 95.0238C8.29323 95.0257 8.24508 95.0273 8.19691 95.0285ZM60.6047 95.0285C60.4946 95.0311 60.3626 95.0328 60.2086 95.0335C60.1341 95.034 60.0596 95.0342 59.9851 95.0342C58.936 95.0369 57.888 94.9667 56.8487 94.824C56.3993 94.7614 55.9523 94.6831 55.5085 94.5893C54.1074 94.2928 53.2796 93.948 53.0249 93.5549C52.9758 93.4799 52.9412 93.3964 52.923 93.3085C52.9092 93.2451 52.9018 93.177 52.901 93.1041C52.901 93.0991 52.901 93.0942 52.901 93.0893C52.9032 93.0339 52.9171 92.9797 52.9416 92.9301C53.0094 92.7801 53.1618 92.5871 53.3988 92.3511C53.4523 92.298 53.5067 92.2458 53.5619 92.1945C53.9193 91.8615 54.1862 91.6636 54.3624 91.6009C54.397 91.5876 54.4336 91.5802 54.4707 91.5791C54.5644 91.5798 54.6572 91.5978 54.7444 91.6322C54.8225 91.6622 54.9016 91.7048 54.9818 91.76C55.0633 91.8162 55.1437 91.874 55.2229 91.9333C55.3311 92.014 55.4452 92.1027 55.5651 92.1996C55.7045 92.3119 55.8474 92.4197 55.9936 92.5229C56.0873 92.5892 56.182 92.6539 56.2779 92.717C56.7176 93.0036 57.2132 93.1935 57.7316 93.274C57.9987 93.3173 58.2688 93.3385 58.5393 93.3376C58.8904 93.3376 59.1744 93.2479 59.3912 93.0687C59.4835 92.9943 59.5605 92.9026 59.6179 92.7988C59.6845 92.6734 59.7184 92.5332 59.7165 92.3912C59.7202 92.1284 59.6221 91.8743 59.4428 91.6825C59.3346 91.5652 59.2139 91.4602 59.0826 91.3695C58.9703 91.2915 58.8525 91.2215 58.7303 91.16C58.5781 91.083 58.4244 91.0088 58.2695 90.9375C58.1025 90.8607 57.9342 90.7865 57.7648 90.7151C57.4072 90.5638 57.0542 90.4016 56.7063 90.2288C56.3517 90.053 56.0265 89.8616 55.7305 89.6547C55.5299 89.516 55.3489 89.3509 55.1923 89.1638C54.9026 88.8195 54.7455 88.3827 54.7494 87.9324C54.7494 87.2461 54.9577 86.6513 55.3742 86.1479C55.7577 85.688 56.2285 85.3091 56.7594 85.033C56.8219 84.9999 56.8851 84.9681 56.9489 84.9375C57.5824 84.634 58.2984 84.3788 59.097 84.172C59.8525 83.9805 60.6196 83.838 61.3934 83.7453C61.9525 83.679 62.5149 83.6452 63.0779 83.6443C63.79 83.6433 64.5019 83.6659 65.2125 83.7118C65.6654 83.7414 66.1175 83.7827 66.5683 83.8358C66.8176 83.8648 67.066 83.9005 67.3134 83.9428C67.7611 84.0203 68.1274 84.1125 68.4125 84.2195C68.5449 84.2674 68.6725 84.3277 68.7936 84.3996C68.8356 84.4245 68.8693 84.4611 68.8907 84.5051C68.9237 84.5679 68.9447 84.653 68.9537 84.7604C68.9572 84.8038 68.9589 84.8473 68.9588 84.8909C68.9588 85.1108 68.8951 85.4087 68.7678 85.7845C68.7399 85.8664 68.7107 85.9479 68.68 86.0288C68.4942 86.5219 68.2584 86.9771 67.9726 87.3945C67.9155 87.4787 67.8544 87.5601 67.7895 87.6384C67.5763 87.893 67.3809 88.0204 67.2034 88.0204C67.1643 88.0206 67.1255 88.0125 67.0896 87.9967C67.0538 87.9808 67.0217 87.9576 66.9955 87.9284C66.9888 87.9214 66.9823 87.9141 66.9761 87.9066C66.4626 87.2892 65.9608 86.7835 65.4707 86.3894C65.3412 86.285 65.2078 86.1854 65.071 86.0909C64.4833 85.6757 63.7815 85.4534 63.0625 85.4546C62.9268 85.454 62.7913 85.4619 62.6566 85.4784C62.3133 85.5222 62.0544 85.6263 61.88 85.7909C61.6424 86.015 61.5237 86.2478 61.5237 86.4892C61.525 86.6183 61.5615 86.7446 61.6294 86.8545C61.6957 86.9662 61.793 87.0755 61.9213 87.1824C62.1863 87.403 62.5168 87.603 62.9127 87.7824C63.1205 87.8767 63.327 87.9737 63.5322 88.0733C63.7571 88.1825 63.9809 88.2942 64.2034 88.4083C64.484 88.5516 64.761 88.7016 65.0344 88.8583C65.1892 88.9472 65.3425 89.0386 65.4944 89.1324C65.8901 89.3772 66.2206 89.6841 66.4856 90.053C66.651 90.2867 66.7658 90.5525 66.8225 90.8333C66.8642 91.0343 66.8845 91.2392 66.8832 91.4445C66.8808 91.8254 66.7888 92.2004 66.6146 92.539C66.5184 92.7295 66.4043 92.9103 66.2739 93.0791C66.7747 92.9789 67.2722 92.8634 67.7658 92.7325C68.7634 92.4657 69.591 92.1626 70.2485 91.8233C70.2592 91.8178 70.2699 91.8122 70.2806 91.8066C70.3284 91.7804 70.3776 91.7568 70.428 91.7358C70.5315 91.6933 70.6235 91.6721 70.704 91.6721C70.9117 91.6721 71.037 91.7546 71.0798 91.9195C71.0915 91.9672 71.0971 92.0161 71.0965 92.0651C71.0965 92.2859 70.9623 92.4876 70.6938 92.6704C70.6177 92.7216 70.5396 92.7696 70.4595 92.8145C70.2768 92.918 70.048 93.0314 69.773 93.1547C69.6367 93.2158 69.4996 93.275 69.3617 93.3325C68.742 93.5911 68.0054 93.8514 67.1518 94.1134C65.5156 94.6059 63.8261 94.899 62.1198 94.9863C61.6634 95.0115 61.2063 95.024 60.7492 95.0238C60.701 95.0257 60.6529 95.0273 60.6047 95.0285ZM45.7239 84.8546L45.7135 84.4616C45.7123 84.3771 45.7368 84.2941 45.7836 84.2238C45.8305 84.1534 45.8976 84.0989 45.976 84.0676C46.1057 84.0037 46.2835 83.9647 46.5094 83.9504C46.5779 83.9462 46.6466 83.9441 46.7153 83.9443L51.8167 83.8305C51.9956 83.8305 52.1298 83.8839 52.2194 83.9909C52.2649 84.0442 52.3004 84.1053 52.3241 84.1714C52.3439 84.2281 52.3539 84.2878 52.3537 84.3479C52.3518 84.487 52.3382 84.6257 52.3131 84.7625C52.2354 85.2136 52.0467 85.8228 51.7469 86.59C51.7324 86.6272 51.7178 86.6642 51.7031 86.7013C51.2759 87.7781 50.8422 88.8523 50.4018 89.9238C50.3044 90.1597 50.2121 90.3976 50.125 90.6375C49.8759 91.3271 49.7513 91.8443 49.7513 92.1892C49.7501 92.2789 49.7605 92.3684 49.7824 92.4553C49.8565 92.7332 50.063 92.8721 50.4018 92.8721C50.565 92.871 50.7279 92.86 50.8897 92.8392C51.228 92.7979 51.6245 92.7174 52.0792 92.5977C52.1553 92.5777 52.2313 92.5571 52.3071 92.5359C52.4947 92.4836 52.6816 92.4291 52.8678 92.3723C53.2434 92.2573 53.5548 92.1494 53.802 92.0486C53.8882 92.0136 53.9734 91.976 54.0574 91.9359C54.3882 91.7765 54.6284 91.6894 54.7782 91.6744C54.7927 91.6729 54.8072 91.6721 54.8218 91.6721C54.8797 91.6713 54.9374 91.6786 54.9933 91.6937C55.1681 91.7438 55.2555 91.8815 55.2555 92.1066C55.2555 92.2375 55.1488 92.3858 54.9353 92.5513C54.7126 92.7138 54.478 92.8591 54.2334 92.9861C53.7033 93.2674 53.0182 93.5544 52.1783 93.8471C51.836 93.966 51.4917 94.0789 51.1454 94.1859C50.4464 94.4048 49.7367 94.5882 49.0191 94.7352C48.2931 94.8816 47.6045 94.9742 46.9531 95.0132C46.7226 95.0271 46.4917 95.0341 46.2609 95.0342C45.5463 95.0342 44.9253 94.9427 44.3978 94.7596C44.2727 94.7163 44.15 94.6664 44.0303 94.61C43.8681 94.5357 43.7169 94.4392 43.5811 94.3234C43.4358 94.2 43.32 94.0455 43.2422 93.8714C43.1645 93.6972 43.1268 93.5077 43.1319 93.317C43.1319 93.0335 43.3264 92.4187 43.7154 91.4725C43.8177 91.2241 43.9227 90.9769 44.0303 90.7308C44.2936 90.1276 44.5407 89.5174 44.7713 88.9009C45.2176 87.6997 45.507 86.6767 45.6397 85.8318C45.6929 85.5087 45.7211 85.182 45.7239 84.8546ZM72.1705 84.8546L72.1601 84.4616C72.1589 84.3771 72.1833 84.2942 72.2301 84.2238C72.277 84.1534 72.344 84.099 72.4224 84.0676C72.5521 84.0037 72.7299 83.9647 72.9559 83.9504C73.0245 83.9462 73.0932 83.9441 73.1619 83.9443L78.2633 83.8305C78.4422 83.8305 78.5764 83.8839 78.666 83.9909C78.7115 84.0442 78.747 84.1053 78.7706 84.1714C78.7905 84.2281 78.8005 84.2878 78.8003 84.3479C78.7983 84.487 78.7846 84.6257 78.7594 84.7625C78.6819 85.2136 78.4932 85.8228 78.1935 86.59C78.1789 86.6272 78.1643 86.6642 78.1495 86.7013C77.7224 87.7781 77.2887 88.8523 76.8484 89.9238C76.751 90.1597 76.6587 90.3976 76.5716 90.6375C76.3224 91.3271 76.1979 91.8443 76.1979 92.1892C76.1967 92.2789 76.2071 92.3684 76.229 92.4553C76.3031 92.7332 76.5096 92.8721 76.8484 92.8721C77.0116 92.871 77.1745 92.86 77.3363 92.8392C77.6746 92.7979 78.071 92.7174 78.5257 92.5977C78.6019 92.5777 78.6779 92.5571 78.7537 92.5359C78.9412 92.4836 79.128 92.4291 79.3142 92.3723C79.6899 92.2573 80.0014 92.1494 80.2485 92.0486C80.3348 92.0136 80.42 91.976 80.504 91.9359C80.8348 91.7765 81.075 91.6894 81.2248 91.6744C81.2393 91.6729 81.2538 91.6721 81.2683 91.6721C81.3262 91.6713 81.384 91.6786 81.4399 91.6937C81.6146 91.7438 81.7019 91.8815 81.7019 92.1066C81.7019 92.2375 81.5952 92.3858 81.3819 92.5513C81.1592 92.7138 80.9246 92.8591 80.68 92.9861C80.1498 93.2674 79.4648 93.5544 78.6247 93.8471C78.2825 93.966 77.9382 94.0789 77.592 94.1859C76.893 94.4048 76.1833 94.5882 75.4657 94.7352C74.7397 94.8816 74.051 94.9742 73.3997 95.0132C73.1692 95.0271 72.9383 95.0341 72.7074 95.0342C71.9928 95.0342 71.3717 94.9427 70.8444 94.7596C70.7193 94.7163 70.5966 94.6664 70.4769 94.61C70.3147 94.5357 70.1635 94.4392 70.0277 94.3234C69.8824 94.2 69.7666 94.0455 69.6888 93.8714C69.6111 93.6972 69.5733 93.5077 69.5785 93.317C69.5785 93.0335 69.773 92.4187 70.162 91.4725C70.2643 91.2241 70.3692 90.9769 70.4769 90.7308C70.7402 90.1276 70.9873 89.5174 71.2179 88.9009C71.6642 87.6997 71.9536 86.6767 72.0863 85.8318C72.1395 85.5087 72.1677 85.182 72.1705 84.8546ZM53.3037 80.0338C53.3037 80.7718 52.8958 81.415 52.08 81.9633C51.6401 82.2642 51.1538 82.4908 50.6406 82.6339C50.2683 82.7351 49.8841 82.7862 49.4983 82.7858C49.2341 82.787 48.9702 82.7689 48.7086 82.7315C48.1727 82.6523 47.7321 82.4858 47.3866 82.2322C46.884 81.8632 46.6327 81.4132 46.6327 80.8822C46.633 80.4124 46.7918 79.9566 47.0833 79.5887C47.1239 79.5355 47.1665 79.4839 47.2109 79.4338C47.4923 79.1201 47.8252 78.8569 48.1951 78.6554C48.3627 78.5629 48.5359 78.4809 48.7135 78.4097C49.245 78.1981 49.8076 78.0756 50.3788 78.047C50.4931 78.0405 50.6075 78.0372 50.722 78.0372C51.0255 78.0349 51.3279 78.0732 51.6213 78.1512C51.9595 78.2421 52.2767 78.3984 52.555 78.6114C52.7271 78.7405 52.8784 78.8951 53.0038 79.0701C53.2027 79.3516 53.3077 79.6889 53.3037 80.0338ZM79.7503 80.0338C79.7503 80.7718 79.3424 81.415 78.5266 81.9633C78.0866 82.2643 77.6003 82.4908 77.087 82.6339C76.7147 82.7351 76.3307 82.7862 75.9449 82.7858C75.6807 82.787 75.4168 82.7689 75.1552 82.7315C74.6193 82.6523 74.1786 82.4858 73.833 82.2322C73.3305 81.8632 73.0792 81.4132 73.0792 80.8822C73.0796 80.4124 73.2384 79.9566 73.5299 79.5887C73.5705 79.5355 73.6131 79.4839 73.6575 79.4338C73.9389 79.1201 74.2718 78.8569 74.6417 78.6554C74.8093 78.5629 74.9824 78.4809 75.1601 78.4097C75.6916 78.1981 76.2542 78.0756 76.8254 78.047C76.9397 78.0405 77.0541 78.0372 77.1686 78.0372C77.472 78.0349 77.7744 78.0732 78.0677 78.1512C78.406 78.242 78.7233 78.3984 79.0016 78.6114C79.1737 78.7405 79.325 78.8951 79.4504 79.0701C79.6493 79.3516 79.7543 79.6889 79.7503 80.0338Z" fill="#FF914D"/>
</g>
<defs>
<clipPath id="clip0_19_7">
<rect width="120.006" height="21.9627" fill="white" transform="translate(0.493164 78.0374)"/>
</clipPath>
</defs>
</svg>
